[2026-03-03T15:44:18.468Z] Pipeline process started.
[2026-03-03T15:44:19.253Z] Downloading YouTube: https://youtube.com/shorts/90-7ISyQWuA?si=7kI8iPC-BBn-Zwib
[2026-03-03T15:44:24.895Z] YouTube download completed.
[2026-03-03T15:44:25.326Z] Extracting audio with FFmpeg...
[2026-03-03T15:44:26.668Z] Audio extraction successful.
[2026-03-03T15:44:26.671Z] Starting transcription...
[2026-03-03T15:44:30.848Z] Starting translation...
[2026-03-03T15:44:35.216Z] Generating segment 1/7: "İran rejiminin sərhədləri xari..."
[2026-03-03T15:44:37.749Z] Segment 0 saved (46800 bytes).
[2026-03-03T15:44:37.752Z] Generating segment 2/7: "Biz razılaşma əldə etdiyimizə ..."
[2026-03-03T15:44:40.080Z] Segment 1 saved (31968 bytes).
[2026-03-03T15:44:40.084Z] Generating segment 3/7: "Onlar geri qayıtdılar və biz r..."
[2026-03-03T15:44:42.550Z] Segment 2 saved (51408 bytes).
[2026-03-03T15:44:42.553Z] Generating segment 4/7: "bu insanlarla razılaşma mümkün..."
[2026-03-03T15:44:45.044Z] Segment 3 saved (75312 bytes).
[2026-03-03T15:44:45.046Z] Generating segment 5/7: "Prezidentimiz İrandan başlanan..."
[2026-03-03T15:44:47.715Z] Segment 4 saved (56448 bytes).
[2026-03-03T15:44:47.717Z] Generating segment 6/7: "Təəssüflər ki, danışıqların əs..."
[2026-03-03T15:44:49.969Z] Segment 5 saved (30816 bytes).
[2026-03-03T15:44:49.973Z] Generating segment 7/7: "Ağ Evdə real problemlərimiz va..."
[2026-03-03T15:44:52.261Z] Segment 6 saved (19008 bytes).
[2026-03-03T15:44:52.266Z] Running FFmpeg: C:\Users\fullm\Downloads\dubverse-saas\backend\node_modules\ffmpeg-static\ffmpeg.exe -i C:\Users\fullm\Downloads\dubverse-saas\tmp\uploads\79fb7454-45c0-4800-b62b-cae4152d0ec6\audio.mp3 -i C:\Users\fullm\Downloads\dubverse-saas\tmp\uploads\79fb7454-45c0-4800-b62b-cae4152d0ec6\segments\seg_0.mp3 -i C:\Users\fullm\Downloads\dubverse-saas\tmp\uploads\79fb7454-45c0-4800-b62b-cae4152d0ec6\segments\seg_1.mp3 -i C:\Users\fullm\Downloads\dubverse-saas\tmp\uploads\79fb7454-45c0-4800-b62b-cae4152d0ec6\segments\seg_2.mp3 -i C:\Users\fullm\Downloads\dubverse-saas\tmp\uploads\79fb7454-45c0-4800-b62b-cae4152d0ec6\segments\seg_3.mp3 -i C:\Users\fullm\Downloads\dubverse-saas\tmp\uploads\79fb7454-45c0-4800-b62b-cae4152d0ec6\segments\seg_4.mp3 -i C:\Users\fullm\Downloads\dubverse-saas\tmp\uploads\79fb7454-45c0-4800-b62b-cae4152d0ec6\segments\seg_5.mp3 -i C:\Users\fullm\Downloads\dubverse-saas\tmp\uploads\79fb7454-45c0-4800-b62b-cae4152d0ec6\segments\seg_6.mp3 -filter_complex [1:a]aformat=sample_rates=44100:channel_layouts=stereo,adelay=0|0[s0];[2:a]aformat=sample_rates=44100:channel_layouts=stereo,adelay=6200|6200[s1];[3:a]aformat=sample_rates=44100:channel_layouts=stereo,adelay=11980|11980[s2];[4:a]aformat=sample_rates=44100:channel_layouts=stereo,adelay=15260|15260[s3];[5:a]aformat=sample_rates=44100:channel_layouts=stereo,adelay=19760|19760[s4];[6:a]aformat=sample_rates=44100:channel_layouts=stereo,adelay=25520|25520[s5];[7:a]aformat=sample_rates=44100:channel_layouts=stereo,adelay=31040|31040[s6];[0:a]aformat=sample_rates=44100:channel_layouts=stereo,volume=0[bg];[bg][s0][s1][s2][s3][s4][s5][s6]amix=inputs=8:duration=first:dropout_transition=999,volume=16[out] -map [out] -acodec libmp3lame -ar 44100 -b:a 192k -y C:\Users\fullm\Downloads\dubverse-saas\tmp\uploads\79fb7454-45c0-4800-b62b-cae4152d0ec6\dubbed_audio.mp3
[2026-03-03T15:44:52.667Z] FFmpeg Err: Input #0, mp3, from 'C:\Users\fullm\Downloads\dubverse-saas\tmp\uploads\79fb7454-45c0-4800-b62b-cae4152d0ec6\audio.mp3':
  Metadata:
    major_brand     : mp42
    minor_version   : 0
    compatible_brands: isommp42
    encoder         : Lavf60.16.100
  Duration: 00:00:33.33, start: 0.025057, bitrate: 128 kb/s
  Stream #0:0: Audio: mp3, 44100 Hz, stereo, fltp, 128 kb/s
    Metadata:
      encoder         : Lavc60.31

[2026-03-03T15:44:52.671Z] FFmpeg Err: [mp3 @ 000001e36f8adac0] Estimating duration from bitrate, this may be inaccurate
Input #1, mp3, from 'C:\Users\fullm\Downloads\dubverse-saas\tmp\uploads\79fb7454-45c0-4800-b62b-cae4152d0ec6\segments\seg_0.mp3':
  Duration: 00:00:07.80, start: 0.000000, bitrate: 48 kb/s
  Stream #1:0: Audio: mp3, 24000 Hz, mono, fltp, 48 kb/s
[mp3 @ 000001e36f89be40] Estimating duration from bitrate, this may be inaccurate
Input #2, mp3, from 'C:\Users\fullm\Downloads\dubverse-saas\tmp\uploads\79fb7454-45c0-4800-b62b-cae4152d0ec6\segments\seg_1.mp3':
  Duration: 00:00:05.33, start: 0.000000, bitrate: 48 kb/s
  Stream #2:0: Audio: mp3, 24000 Hz, mono, fltp, 48 kb/s

[2026-03-03T15:44:52.680Z] FFmpeg Err: [mp3 @ 000001e36f8df300] Estimating duration from bitrate, this may be inaccurate
Input #3, mp3, from 'C:\Users\fullm\Downloads\dubverse-saas\tmp\uploads\79fb7454-45c0-4800-b62b-cae4152d0ec6\segments\seg_2.mp3':
  Duration: 00:00:08.57, start: 0.000000, bitrate: 48 kb/s
  Stream #3:0: Audio: mp3, 24000 Hz, mono, fltp, 48 kb/s
[mp3 @ 000001e36f8e5240] Estimating duration from bitrate, this may be inaccurate
Input #4, mp3, from 'C:\Users\fullm\Downloads\dubverse-saas\tmp\uploads\79fb7454-45c0-4800-b62b-cae4152d0ec6\segments\seg_3.mp3':
  Duration: 00:00:12.55, start: 0.000000, bitrate: 48 kb/s
  Stream #4:0: Audio: mp3, 24000 Hz, mono, fltp, 48 kb/s
[mp3 @ 000001e36f917700] Estimating duration from bitrate, this may be inaccurate
Input #5, mp3, from 'C:\Users\fullm\Downloads\dubverse-saas\tmp\uploads\79fb7454-45c0-4800-b62b-cae4152d0ec6\segments\seg_4.mp3':
  Duration: 00:00:09.41, start: 0.000000, bitrate: 48 kb/s
  Stream #5:0: Audio: mp3, 24000 Hz, mono, fltp, 48 kb/s
[mp3 @ 000001e36f9581c0] Estimating duration from bitrate, this may be inaccurate
Input #6, mp3, from 'C:\Users\fullm\Downloads\dubverse-saas\tmp\uploads\79fb7454-45c0-4800-b62b-cae4152d0ec6\segments\seg_5.mp3':
  Duration: 00:00:05.14, start: 0.000000, bitrate: 48 kb/s
  Stream #6:0: Audio: mp3, 24000 Hz, mono, fltp, 48 kb/s
[mp3 @ 000001e36f9447c0] Estimating duration from bitrate, this may be inaccurate
Input #7, mp3, from 'C:\Users\fullm\Downloads\dubverse-saas\tmp\uploads\79fb7454-45c0-4800-b62b-cae4152d0ec6\segments\seg_6.mp3':
  Duration: 00:00:03.17, start: 0.000000, bitrate: 48 kb/s
  Stream #7:0: Audio: mp3, 24000 Hz, mono, fltp, 48 kb/s

[2026-03-03T15:44:52.688Z] FFmpeg Err: Stream mapping:
  Stream #0:0 (mp3float) -> aformat:default
  Stream #1:0 (mp3float) -> aformat:default
  Stream #2:0 (mp3float) -> aformat:default
  Stream #3:0 (mp3float) -> aformat:default
  Stream #4:0 (mp3float) -> aformat:default
  Stream #5:0 (mp3float) -> aformat:default
  Stream #6:0 (mp3float) -> aformat:default
  Stream #7:0 (mp3float) -> aformat:default
  volume:default -> Stream #0:0 (libmp3lame)

[2026-03-03T15:44:52.742Z] FFmpeg Err: Output #0, mp3, to 'C:\Users\fullm\Downloads\dubverse-saas\tmp\uploads\79fb7454-45c0-4800-b62b-cae4152d0ec6\dubbed_audio.mp3':
  Metadata:
    major_brand     : mp42
    minor_version   : 0
    compatible_brands: isommp42
    TSSE            : Lavf60.16.100

[2026-03-03T15:44:52.745Z] FFmpeg Err:   Stream #0:0: Audio: mp3, 44100 Hz, stereo, fltp, 192 kb/s
    Metadata:
      encoder         : Lavc60.31.102 libmp3lame
size=       0kB time=N/A bitrate=N/A speed=N/A    
[2026-03-03T15:44:53.203Z] FFmpeg Err: size=     256kB time=00:00:12.95 bitrate= 161.8kbits/s speed=24.9x    
[2026-03-03T15:44:53.703Z] FFmpeg Err: size=     512kB time=00:00:24.03 bitrate= 174.5kbits/s speed=23.6x    
[2026-03-03T15:44:54.081Z] FFmpeg Err: [out#0/mp3 @ 000001e370fa5340] video:0kB audio:781kB subtitle:0kB other streams:0kB global headers:0kB muxing overhead: 0.095503%
size=     782kB time=00:00:33.28 bitrate= 192.5kbits/s speed=23.8x    

[2026-03-03T15:44:54.689Z] Starting final video/audio muxing...
[2026-03-03T15:44:54.694Z] Running FFmpeg: C:\Users\fullm\Downloads\dubverse-saas\backend\node_modules\ffmpeg-static\ffmpeg.exe -i C:\Users\fullm\Downloads\dubverse-saas\tmp\uploads\79fb7454-45c0-4800-b62b-cae4152d0ec6\video.mp4 -i C:\Users\fullm\Downloads\dubverse-saas\tmp\uploads\79fb7454-45c0-4800-b62b-cae4152d0ec6\dubbed_audio.mp3 -map 0:v:0 -map 1:a:0 -c:v copy -c:a aac -b:a 192k -shortest -y C:\Users\fullm\Downloads\dubverse-saas\tmp\uploads\79fb7454-45c0-4800-b62b-cae4152d0ec6\final_dubbed.mp4
[2026-03-03T15:44:54.870Z] FFmpeg Err: Input #0, mov,mp4,m4a,3gp,3g2,mj2, from 'C:\Users\fullm\Downloads\dubverse-saas\tmp\uploads\79fb7454-45c0-4800-b62b-cae4152d0ec6\video.mp4':
  Metadata:
    major_brand     : mp42
    minor_version   : 0
    compatible_brands: isommp42
    creation_time   : 2026-03-02T18:15:48.000000Z
    encoder         : Google
  Duration: 00:00:33.30, start: 0.000000, bitrate: 314 kb/s
  Stream #0:0[0x1](und): Video: h264 (Main) (avc1 / 0x31637661), yuv420p(tv, bt709, progressive), 360x640 [SAR 1:1 DAR 9:16], 264 kb/s, 25 fps, 25 tbr, 12800 tbn (default)
    Metadata:
      creation_time   : 2026-03-02T18:15:48.000000Z
      handler_name    : ISO Media file produced by Google Inc. Created on: 03/02/2026.
      vendor_id       : [0][0][0][0]
  Stream #0:1[0x2
[2026-03-03T15:44:54.875Z] FFmpeg Err: ](eng): Audio: aac (HE-AAC) (mp4a / 0x6134706D), 44100 Hz, stereo, fltp, 48 kb/s (default)
    Metadata:
      creation_time   : 2026-03-02T18:15:48.000000Z
      handler_name    : ISO Media file produced by Google Inc. Created on: 03/02/2026.
      vendor_id       : [0][0][0][0]
Input #1, mp3, from 'C:\Users\fullm\Downloads\dubverse-saas\tmp\uploads\79fb7454-45c0-4800-b62b-cae4152d0ec6\dubbed_audio.mp3':
  Metadata:
    major_brand     : mp42
    minor_version   : 0
    compatible_brands: isommp42
    encoder         : Lavf60.16.100
  Duration: 00:00:33.33, start: 0.025057, bitrate: 192 kb/s
  Stream #1:0: Audio: mp3, 44100 Hz, stereo, fltp, 192 kb/s
    Metadata:
      encoder         : Lavc60.31

[2026-03-03T15:44:54.881Z] FFmpeg Err: Stream mapping:
  Stream #0:0 -> #0:0 (copy)
  Stream #1:0 -> #0:1 (mp3 (mp3float) -> aac (native))

[2026-03-03T15:44:54.893Z] FFmpeg Err: Output #0, mp4, to 'C:\Users\fullm\Downloads\dubverse-saas\tmp\uploads\79fb7454-45c0-4800-b62b-cae4152d0ec6\final_dubbed.mp4':
  Metadata:
    major_brand     : mp42
    minor_version   : 0
    compatible_brands: isommp42
    encoder         : Lavf60.16.100

[2026-03-03T15:44:54.897Z] FFmpeg Err:   Stream #0:0(und): Video: h264 (Main) (avc1 / 0x31637661), yuv420p(tv, bt709, progressive), 360x640 [SAR 1:1 DAR 9:16], q=2-31, 264 kb/s, 25 fps, 25 tbr, 12800 tbn (default)
    Metadata:
      creation_time   : 2026-03-02T18:15:48.000000Z
      handler_name    : ISO Media file produced by Google Inc. Created on: 03/02/2026.
      vendor_id       : [0][0][0][0]
  Stream #0:1: Audio: aac (LC) (mp4a / 0x6134706D), 44100 Hz, stereo, fltp, 192 kb/s
    Metadata:
      encoder         : Lavc60.31.102 aac
size=       0kB time=N/A bitrate=N/A speed=N/A    
[2026-03-03T15:44:55.383Z] FFmpeg Err: size=       0kB time=00:00:04.68 bitrate=   0.1kbits/s speed=9.29x    
[2026-03-03T15:44:55.885Z] FFmpeg Err: size=     512kB time=00:00:12.16 bitrate= 345.0kbits/s speed=12.1x    
[2026-03-03T15:44:56.383Z] FFmpeg Err: size=     768kB time=00:00:18.76 bitrate= 335.4kbits/s speed=12.5x    
[2026-03-03T15:44:56.890Z] FFmpeg Err: size=    1280kB time=00:00:25.64 bitrate= 409.0kbits/s speed=12.8x    
[2026-03-03T15:44:57.391Z] FFmpeg Err: size=    1536kB time=00:00:32.48 bitrate= 387.4kbits/s speed=12.9x    
[2026-03-03T15:44:57.434Z] FFmpeg Err: [out#0/mp4 @ 000002d5f9fee100] video:1071kB audio:716kB subtitle:0kB other streams:0kB global headers:0kB muxing overhead: 1.373505%
size=    1812kB time=00:00:33.25 bitrate= 446.4kbits/s speed=  13x    

[2026-03-03T15:44:57.437Z] FFmpeg Err: [aac @ 000002d5f9d524c0] Qavg: 10911.470

[2026-03-03T15:44:57.914Z] Pipeline finished successfully!
